HIERARCHY
ROOT Hips
{
	OFFSET 0.000000 100.481300 0.000000
	CHANNELS 6 Xposition Yposition Zposition Xrotation Yrotation Zrotation 
	JOINT Spine
	{
		OFFSET -0.279200 12.230698 -2.892100
		CHANNELS 3 Xrotation Yrotation Zrotation
		JOINT Spine1
		{
			OFFSET -0.232667 10.192268 -1.242267
			CHANNELS 3 Xrotation Yrotation Zrotation
			JOINT Spine1_split
			{
				OFFSET -0.232667 10.192268 -1.242267
				CHANNELS 3 Xrotation Yrotation Zrotation
				JOINT Spine2
				{
					OFFSET -0.232667 10.192268 -1.242267
					CHANNELS 3 Xrotation Yrotation Zrotation
					JOINT Neck
					{
						OFFSET -0.418800 17.814194 8.416900
						CHANNELS 3 Xrotation Yrotation Zrotation
						JOINT Head
						{
							OFFSET 0.000000 7.031097 3.806800
							CHANNELS 3 Xrotation Yrotation Zrotation
							JOINT HeadTop_End
							{
								OFFSET 0.000000 24.646606 12.978600
								CHANNELS 3 Xrotation Yrotation Zrotation
								End Site
								{
									OFFSET 0.000000 0.000000 0.000000
								}
							}
						}
					}
					JOINT LeftShoulder
					{
						OFFSET 8.476499 7.247704 -3.868750
						CHANNELS 3 Xrotation Yrotation Zrotation
						JOINT LeftShoulder_split
						{
							OFFSET 8.476499 7.247704 -3.868750
							CHANNELS 3 Xrotation Yrotation Zrotation
							JOINT LeftArm
							{
								OFFSET 9.308998 -2.777710 0.208600
								CHANNELS 3 Xrotation Yrotation Zrotation
								JOINT LeftForeArm
								{
									OFFSET 29.972298 0.000000 0.000000
									CHANNELS 3 Xrotation Yrotation Zrotation
									JOINT LeftHand
									{
										OFFSET 26.026505 0.000000 0.000000
										CHANNELS 3 Xrotation Yrotation Zrotation
										JOINT LeftHandThumb1
										{
											OFFSET 12.240501 -7.147949 9.207150
											CHANNELS 3 Xrotation Yrotation Zrotation
											JOINT LeftHandThumb2
											{
												OFFSET 4.138618 -2.389435 2.389433
												CHANNELS 3 Xrotation Yrotation Zrotation
												JOINT LeftHandThumb3
												{
													OFFSET 2.726913 -1.574387 1.574386
													CHANNELS 3 Xrotation Yrotation Zrotation
													JOINT LeftHandThumb4
													{
														OFFSET 3.941010 -2.275345 2.275342
														CHANNELS 3 Xrotation Yrotation Zrotation
														End Site
														{
															OFFSET 0.000000 0.000000 0.000000
														}
													}
												}
											}
										}
										JOINT LeftHandIndex1
										{
											OFFSET 24.424698 -1.985611 5.953459
											CHANNELS 3 Xrotation Yrotation Zrotation
											JOINT LeftHandIndex2
											{
												OFFSET 6.426697 0.000000 0.000000
												CHANNELS 3 Xrotation Yrotation Zrotation
												JOINT LeftHandIndex3
												{
													OFFSET 5.337898 0.000000 0.000000
													CHANNELS 3 Xrotation Yrotation Zrotation
													JOINT LeftHandIndex4
													{
														OFFSET 4.409401 0.000000 0.000000
														CHANNELS 3 Xrotation Yrotation Zrotation
														End Site
														{
															OFFSET 0.000000 0.000000 0.000000
														}
													}
												}
											}
										}
										JOINT LeftHandMiddle1
										{
											OFFSET 23.810104 0.000000 0.000000
											CHANNELS 3 Xrotation Yrotation Zrotation
											JOINT LeftHandMiddle2
											{
												OFFSET 7.176498 0.000000 0.000000
												CHANNELS 3 Xrotation Yrotation Zrotation
												JOINT LeftHandMiddle3
												{
													OFFSET 6.774902 0.000000 0.000000
													CHANNELS 3 Xrotation Yrotation Zrotation
													JOINT LeftHandMiddle4
													{
														OFFSET 5.403328 0.000000 0.000000
														CHANNELS 3 Xrotation Yrotation Zrotation
														End Site
														{
															OFFSET 0.000000 0.000000 0.000000
														}
													}
												}
											}
										}
										JOINT LeftHandRing1
										{
											OFFSET 22.908401 -0.839279 -6.020567
											CHANNELS 3 Xrotation Yrotation Zrotation
											JOINT LeftHandRing2
											{
												OFFSET 6.337502 0.000000 0.000000
												CHANNELS 3 Xrotation Yrotation Zrotation
												JOINT LeftHandRing3
												{
													OFFSET 5.779297 0.000000 0.000000
													CHANNELS 3 Xrotation Yrotation Zrotation
													JOINT LeftHandRing4
													{
														OFFSET 4.965698 0.000000 0.000000
														CHANNELS 3 Xrotation Yrotation Zrotation
														End Site
														{
															OFFSET 0.000000 0.000000 0.000000
														}
													}
												}
											}
										}
										JOINT LeftHandPinky1
										{
											OFFSET 20.037003 -1.530319 -10.950146
											CHANNELS 3 Xrotation Yrotation Zrotation
											JOINT LeftHandPinky2
											{
												OFFSET 5.254700 0.000000 0.000000
												CHANNELS 3 Xrotation Yrotation Zrotation
												JOINT LeftHandPinky3
												{
													OFFSET 4.810204 0.000000 0.000000
													CHANNELS 3 Xrotation Yrotation Zrotation
													JOINT LeftHandPinky4
													{
														OFFSET 3.647202 0.000000 0.000000
														CHANNELS 3 Xrotation Yrotation Zrotation
														End Site
														{
															OFFSET 0.000000 0.000000 0.000000
														}
													}
												}
											}
										}
									}
								}
							}
						}
					}
					JOINT RightShoulder
					{
						OFFSET -7.570500 7.247704 -3.868750
						CHANNELS 3 Xrotation Yrotation Zrotation
						JOINT RightShoulder_split
						{
							OFFSET -7.570500 7.247704 -3.868750
							CHANNELS 3 Xrotation Yrotation Zrotation
							JOINT RightArm
							{
								OFFSET -9.308998 -2.777710 0.208500
								CHANNELS 3 Xrotation Yrotation Zrotation
								JOINT RightForeArm
								{
									OFFSET -29.972300 0.000000 0.000000
									CHANNELS 3 Xrotation Yrotation Zrotation
									JOINT RightHand
									{
										OFFSET -26.026505 0.000000 0.000000
										CHANNELS 3 Xrotation Yrotation Zrotation
										JOINT RightHandThumb1
										{
											OFFSET -12.240601 -7.148026 9.207092
											CHANNELS 3 Xrotation Yrotation Zrotation
											JOINT RightHandThumb2
											{
												OFFSET -4.138618 -2.389435 2.389433
												CHANNELS 3 Xrotation Yrotation Zrotation
												JOINT RightHandThumb3
												{
													OFFSET -2.726974 -1.574417 1.574421
													CHANNELS 3 Xrotation Yrotation Zrotation
													JOINT RightHandThumb4
													{
														OFFSET -3.941010 -2.275345 2.275343
														CHANNELS 3 Xrotation Yrotation Zrotation
														End Site
														{
															OFFSET 0.000000 0.000000 0.000000
														}
													}
												}
											}
										}
										JOINT RightHandIndex1
										{
											OFFSET -24.424698 -1.985657 5.953444
											CHANNELS 3 Xrotation Yrotation Zrotation
											JOINT RightHandIndex2
											{
												OFFSET -6.426697 0.000000 0.000000
												CHANNELS 3 Xrotation Yrotation Zrotation
												JOINT RightHandIndex3
												{
													OFFSET -5.337898 0.000000 0.000000
													CHANNELS 3 Xrotation Yrotation Zrotation
													JOINT RightHandIndex4
													{
														OFFSET -4.409401 0.000000 0.000000
														CHANNELS 3 Xrotation Yrotation Zrotation
														End Site
														{
															OFFSET 0.000000 0.000000 0.000000
														}
													}
												}
											}
										}
										JOINT RightHandMiddle1
										{
											OFFSET -23.810097 0.000000 0.000000
											CHANNELS 3 Xrotation Yrotation Zrotation
											JOINT RightHandMiddle2
											{
												OFFSET -7.176498 0.000000 0.000000
												CHANNELS 3 Xrotation Yrotation Zrotation
												JOINT RightHandMiddle3
												{
													OFFSET -6.774902 0.000000 0.000000
													CHANNELS 3 Xrotation Yrotation Zrotation
													JOINT RightHandMiddle4
													{
														OFFSET -5.403328 0.000000 0.000000
														CHANNELS 3 Xrotation Yrotation Zrotation
														End Site
														{
															OFFSET 0.000000 0.000000 0.000000
														}
													}
												}
											}
										}
										JOINT RightHandRing1
										{
											OFFSET -22.908302 -0.839325 -6.020576
											CHANNELS 3 Xrotation Yrotation Zrotation
											JOINT RightHandRing2
											{
												OFFSET -6.337502 0.000000 0.000000
												CHANNELS 3 Xrotation Yrotation Zrotation
												JOINT RightHandRing3
												{
													OFFSET -5.779297 0.000000 0.000000
													CHANNELS 3 Xrotation Yrotation Zrotation
													JOINT RightHandRing4
													{
														OFFSET -4.965698 0.000000 0.000000
														CHANNELS 3 Xrotation Yrotation Zrotation
														End Site
														{
															OFFSET 0.000000 0.000000 0.000000
														}
													}
												}
											}
										}
										JOINT RightHandPinky1
										{
											OFFSET -20.037003 -1.530334 -10.950259
											CHANNELS 3 Xrotation Yrotation Zrotation
											JOINT RightHandPinky2
											{
												OFFSET -5.254700 0.000000 0.000000
												CHANNELS 3 Xrotation Yrotation Zrotation
												JOINT RightHandPinky3
												{
													OFFSET -4.810204 0.000000 0.000000
													CHANNELS 3 Xrotation Yrotation Zrotation
													JOINT RightHandPinky4
													{
														OFFSET -3.647202 0.000000 0.000000
														CHANNELS 3 Xrotation Yrotation Zrotation
														End Site
														{
															OFFSET 0.000000 0.000000 0.000000
														}
													}
												}
											}
										}
									}
								}
							}
						}
					}
				}
			}
		}
	}
	JOINT LeftUpLeg
	{
		OFFSET 15.427100 -6.655098 0.678600
		CHANNELS 3 Xrotation Yrotation Zrotation
		JOINT LeftLeg
		{
			OFFSET 4.081073 -39.591068 13.024000
			CHANNELS 3 Xrotation Yrotation Zrotation
			JOINT LeftFoot
			{
				OFFSET -4.081074 -37.707932 -15.979700
				CHANNELS 3 Xrotation Yrotation Zrotation
				JOINT LeftToeBase
				{
					OFFSET 5.346399 -15.068900 20.645000
					CHANNELS 3 Xrotation Yrotation Zrotation
					JOINT LeftToe_End
					{
						OFFSET 2.754700 0.931300 11.300900
						CHANNELS 3 Xrotation Yrotation Zrotation
						End Site
						{
							OFFSET 0.000000 0.000000 0.000000
						}
					}
				}
			}
		}
	}
	JOINT RightUpLeg
	{
		OFFSET -15.569500 -6.655098 0.678600
		CHANNELS 3 Xrotation Yrotation Zrotation
		JOINT RightLeg
		{
			OFFSET -4.081825 -39.591045 13.023800
			CHANNELS 3 Xrotation Yrotation Zrotation
			JOINT RightFoot
			{
				OFFSET 4.081824 -37.707954 -15.979600
				CHANNELS 3 Xrotation Yrotation Zrotation
				JOINT RightToeBase
				{
					OFFSET -5.346400 -15.068900 20.645000
					CHANNELS 3 Xrotation Yrotation Zrotation
					JOINT RightToe_End
					{
						OFFSET -2.754700 0.931300 11.300900
						CHANNELS 3 Xrotation Yrotation Zrotation
						End Site
						{
							OFFSET 0.000000 0.000000 0.000000
						}
					}
				}
			}
		}
	}
}
MOTION
Frames: 4
Frame Time: 0.016667
0.197495 138.608505 -1.298059 -1.011799 1.611640 -0.706226 -2.803707 -0.120849 1.023319 -5.611654 -0.102273 -0.620859 0.000000 0.000000 0.000000 -5.611649 -0.102273 -0.620859 -27.780266 0.884574 -2.478856 -5.939968 -1.809257 2.604352 0.000001 -0.000000 0.000000 7.248322 6.365628 32.385164 0.000000 0.000000 0.000000 -52.895300 -36.819883 5.857845 -23.466870 -23.506887 1.478708 -3.826421 -2.003300 0.833591 -23.505073 8.724643 4.055174 -11.818402 8.158622 13.633641 0.000003 -0.000005 -0.000016 -0.000001 -0.000002 0.000001 -0.793898 -9.944891 -73.989855 -8.742872 -2.825255 -82.562336 -0.000001 0.000000 0.000002 -0.000000 0.000000 0.000001 -7.057127 -4.106580 -72.543972 -5.071183 -4.491860 -69.918434 0.000006 -0.000001 -0.000014 -0.000001 0.000001 -0.000004 -10.868853 6.242570 -70.785635 -0.409557 -6.819472 -77.462459 0.000002 0.000021 -0.000002 0.000000 0.000000 0.000002 -15.058359 6.364010 -69.029068 0.828475 -8.182883 -68.648633 0.000001 -0.000001 0.000003 0.000002 -0.000001 -0.000003 2.277537 -6.651283 -36.122572 0.000000 0.000000 0.000000 -64.303840 35.763892 7.685036 -24.527681 16.757154 0.686880 10.834991 10.092836 2.135999 -17.327317 6.468905 -26.575935 3.045296 -20.332850 1.155719 -0.000003 0.000021 -0.000000 -0.000001 -0.000002 -0.000001 -8.189435 4.700903 83.344318 -5.502023 0.854516 81.248925 0.000000 0.000000 0.000001 0.000001 0.000000 0.000000 -13.105694 1.845243 86.654945 -5.617187 1.089110 83.764573 0.000002 -0.000014 0.000007 0.000000 -0.000000 -0.000000 -13.657548 -7.092647 77.657851 -0.194376 7.087295 77.421314 0.000000 -0.000001 -0.000001 0.000001 -0.000000 -0.000000 -17.941847 -11.668150 76.734846 1.092296 11.886533 73.232865 -0.000003 -0.000005 -0.000001 0.000001 0.000001 0.000001 -22.032821 7.841502 5.343497 39.790893 13.120857 0.667429 34.567919 1.290589 5.225986 -0.000018 -0.000006 -0.000002 -0.000002 0.000002 -0.000000 -4.476543 -7.433904 -5.089201 27.479637 -15.920000 3.646717 41.585504 0.040323 4.853598 -0.000013 -0.000003 -0.000006 -0.000002 -0.000000 -0.000000 
0.388284 138.058380 -1.822197 -0.858622 1.414711 -0.421582 -2.728625 0.056157 0.798972 -5.454586 0.132121 -0.464095 0.000000 0.000000 0.000000 -5.454581 0.132120 -0.464096 -28.934864 1.054855 -3.177759 -5.198134 -1.919964 3.212581 -0.000002 0.000000 0.000000 7.446503 6.603387 32.450335 0.000000 0.000000 0.000000 -54.448912 -35.183756 3.471660 -24.716312 -26.798657 2.385694 -2.089437 -0.267396 0.161415 -23.495525 8.735376 4.099166 -11.816010 8.165965 13.633314 0.000002 -0.000003 -0.000018 0.000000 0.000002 0.000001 -0.798124 -9.946869 -74.031389 -8.750727 -2.825443 -82.619744 0.000000 0.000000 0.000000 -0.000000 0.000000 -0.000001 -7.063491 -4.107374 -72.604296 -5.077528 -4.493780 -69.977310 0.000006 0.000000 -0.000007 -0.000001 0.000000 0.000000 -10.882235 6.239435 -70.819014 -0.412563 -6.821503 -77.522866 0.000003 0.000020 -0.000004 0.000000 -0.000002 0.000001 -15.087326 6.354692 -69.042257 0.827779 -8.184453 -68.710911 -0.000000 0.000000 -0.000000 0.000002 -0.000000 -0.000002 2.388919 -6.364262 -35.754596 0.000000 0.000000 0.000000 -64.004992 34.598214 7.322058 -24.670423 19.891075 0.003026 11.125943 8.673194 4.184491 -17.283797 6.418221 -26.304660 3.064559 -20.360340 1.166128 -0.000002 0.000024 0.000001 -0.000000 -0.000001 -0.000000 -8.185394 4.699040 83.315754 -5.510743 0.853753 81.338107 -0.000001 -0.000000 -0.000000 -0.000000 -0.000000 0.000000 -13.046150 1.831961 86.514366 -5.595992 1.089993 83.530522 0.000001 -0.000013 0.000008 -0.000000 -0.000000 -0.000000 -13.616083 -7.089680 77.376659 -0.170993 7.073144 77.042403 0.000000 -0.000001 -0.000001 0.000001 0.000000 -0.000001 -17.831259 -11.643989 76.290877 1.111517 11.863438 72.805835 -0.000003 -0.000004 -0.000002 -0.000002 -0.000000 0.000000 -24.078592 7.968699 4.120232 41.677644 9.629850 0.697927 34.320738 1.096810 2.477509 -0.130938 -0.066221 0.133201 0.000001 -0.000001 -0.000000 -5.201076 -7.257056 -6.424173 32.834181 -15.010483 4.598090 37.269795 0.327476 6.990755 0.104424 1.803731 0.387929 -0.000000 -0.000000 0.000000 
0.594608 137.293472 -2.703280 -0.598454 0.850805 -0.081865 -2.643617 0.349652 0.508728 -5.279450 0.526127 -0.270102 0.000000 0.000000 0.000000 -5.279449 0.526127 -0.270102 -29.410528 0.905853 -3.426295 -5.302065 -1.820671 3.677568 -0.000001 0.000000 0.000000 7.870904 7.117306 32.582270 0.000000 0.000000 0.000000 -57.915865 -34.418443 -0.704281 -26.183269 -29.980108 4.243763 1.291427 1.133865 -1.465705 -23.490586 8.740853 4.122864 -11.815333 8.169575 13.633534 0.000000 -0.000003 -0.000018 0.000001 0.000002 0.000001 -0.800593 -9.948100 -74.055725 -8.755202 -2.825502 -82.652652 -0.000000 0.000000 -0.000002 0.000000 -0.000000 -0.000001 -7.067247 -4.108008 -72.638030 -5.081096 -4.494822 -70.010573 0.000006 -0.000000 -0.000009 -0.000001 -0.000001 0.000002 -10.889682 6.237613 -70.837825 -0.414237 -6.822632 -77.556757 0.000003 0.000020 -0.000004 0.000001 0.000001 -0.000001 -15.103474 6.349270 -69.049640 0.827408 -8.185265 -68.745164 0.000003 0.000001 0.000001 0.000002 0.000000 -0.000001 2.490095 -6.094541 -35.392852 0.000000 0.000000 0.000000 -63.972419 33.630718 7.079524 -24.776926 22.588499 -0.847470 11.676237 7.518017 6.413621 -17.301685 6.438979 -26.415048 3.056134 -20.348418 1.161315 -0.000003 0.000025 -0.000000 0.000000 0.000001 0.000001 -8.187157 4.700024 83.323882 -5.507085 0.854107 81.300302 -0.000000 -0.000000 -0.000000 -0.000000 -0.000000 -0.000000 -13.070163 1.838111 86.568249 -5.604631 1.089756 83.625421 0.000001 -0.000013 0.000007 0.000001 -0.000000 -0.000001 -13.632584 -7.090487 77.490115 -0.180613 7.078953 77.198452 -0.000002 -0.000001 -0.000000 -0.000001 0.000001 0.000000 -17.876750 -11.653717 76.473311 1.103614 11.872900 72.981541 -0.000003 -0.000003 -0.000001 0.000002 0.000001 -0.000001 -26.797066 8.232091 2.413311 44.476962 5.198334 0.769789 33.387884 1.345684 0.490013 -0.133662 -0.247613 0.149177 -0.000004 -0.000000 0.000001 -6.377249 -7.124609 -7.573747 39.018429 -11.645746 5.548333 31.070380 0.520233 10.741071 0.675268 2.489627 1.117268 -0.000000 0.000000 -0.000003 
0.814611 136.624695 -3.827630 -0.253240 -0.066209 0.166465 -2.552308 0.716832 0.298190 -5.097277 1.039579 -0.044115 0.000000 0.000000 0.000000 -5.097278 1.039580 -0.044115 -29.440909 0.570002 -3.397076 -5.910967 -1.569222 4.078034 -0.000002 0.000000 0.000000 8.458166 7.825095 32.740737 0.000000 0.000000 0.000000 -62.473855 -34.058827 -5.800711 -27.569534 -32.988857 6.946107 5.686075 2.103969 -3.638413 -23.494003 8.736976 4.107990 -11.816702 8.166774 13.634053 0.000004 -0.000003 -0.000017 0.000001 0.000001 -0.000000 -0.799346 -9.947589 -74.043601 -8.752824 -2.825442 -82.635112 0.000000 0.000000 0.000002 0.000000 0.000000 0.000001 -7.065410 -4.107951 -72.618838 -5.079105 -4.494243 -69.992152 0.000006 0.000000 -0.000008 0.000000 -0.000000 0.000001 -10.885397 6.238507 -70.827340 -0.413284 -6.821995 -77.537612 0.000000 0.000020 -0.000004 0.000002 -0.000000 -0.000000 -15.094178 6.352016 -69.045453 0.827628 -8.184761 -68.724749 -0.000000 -0.000000 0.000003 0.000001 0.000000 0.000001 2.587534 -5.828014 -35.023960 0.000000 0.000000 0.000000 -64.095233 32.796308 6.908418 -24.852734 25.024792 -1.814134 12.403232 6.558980 8.612028 -17.355017 6.501263 -26.748636 3.032335 -20.314606 1.148216 -0.000004 0.000024 0.000001 0.000001 -0.000002 -0.000002 -8.192464 4.702500 83.357971 -5.496463 0.854982 81.191845 0.000000 -0.000000 -0.000000 0.000000 -0.000000 -0.000000 -13.143536 1.854597 86.740110 -5.630819 1.088605 83.913846 0.000001 -0.000013 0.000008 -0.000001 -0.000000 -0.000000 -13.683656 -7.094129 77.835927 -0.209471 7.096335 77.666327 0.000001 -0.000000 -0.000000 0.000002 0.000000 -0.000001 -18.013929 -11.684590 77.021263 1.079821 11.901435 73.508149 -0.000002 -0.000006 -0.000001 -0.000001 -0.000000 -0.000001 -29.641812 8.600724 0.484134 47.378864 0.439313 0.879161 32.115970 1.870560 -1.024599 -0.193778 -0.451743 0.151179 -0.000000 0.000001 -0.000001 -7.043265 -7.140153 -8.428572 44.091221 -7.045915 6.312390 24.633006 0.638796 15.227173 1.065591 2.221613 1.522315 -0.000000 0.000000 0.000001 
